<svg width="20" height="20" viewBox="0 0 20 20" fill="none" xmlns="http://www.w3.org/2000/svg">
<path d="M18.3393 7.31427L4.33927 0.314269C3.78676 0.0392781 3.16289 -0.0586206 2.55271 0.0339206C1.94252 0.126462 1.37573 0.404939 0.929602 0.831385C0.483474 1.25783 0.179724 1.81149 0.0597636 2.41688C-0.0601964 3.02227 0.00947219 3.64992 0.259271 4.21427L2.65927 9.58427C2.71373 9.7141 2.74177 9.85348 2.74177 9.99427C2.74177 10.1351 2.71373 10.2744 2.65927 10.4043L0.259271 15.7743C0.055971 16.231 -0.0299735 16.7313 0.00924794 17.2296C0.0484693 17.728 0.211613 18.2087 0.483853 18.628C0.756092 19.0473 1.1288 19.3919 1.56809 19.6305C2.00739 19.8691 2.49935 19.9941 2.99927 19.9943C3.4675 19.9896 3.92876 19.8803 4.34927 19.6743L18.3493 12.6743C18.8459 12.4245 19.2633 12.0416 19.555 11.5683C19.8466 11.0951 20.0011 10.5502 20.0011 9.99427C20.0011 9.43838 19.8466 8.89342 19.555 8.42019C19.2633 7.94696 18.8459 7.56408 18.3493 7.31427H18.3393ZM17.4493 10.8843L3.44927 17.8843C3.26543 17.9725 3.059 18.0025 2.85766 17.9701C2.65631 17.9377 2.46968 17.8446 2.32278 17.7031C2.17589 17.5617 2.07575 17.3787 2.0358 17.1787C1.99585 16.9787 2.018 16.7713 2.09927 16.5843L4.48927 11.2143C4.52021 11.1426 4.54692 11.0691 4.56927 10.9943H11.4593C11.7245 10.9943 11.9788 10.8889 12.1664 10.7014C12.3539 10.5138 12.4593 10.2595 12.4593 9.99427C12.4593 9.72905 12.3539 9.4747 12.1664 9.28716C11.9788 9.09963 11.7245 8.99427 11.4593 8.99427H4.56927C4.54692 8.91944 4.52021 8.84598 4.48927 8.77427L2.09927 3.40427C2.018 3.21723 1.99585 3.00982 2.0358 2.80984C2.07575 2.60986 2.17589 2.42687 2.32278 2.28542C2.46968 2.14396 2.65631 2.0508 2.85766 2.01842C3.059 1.98604 3.26543 2.016 3.44927 2.10427L17.4493 9.10427C17.6131 9.18819 17.7505 9.31568 17.8465 9.47271C17.9425 9.62975 17.9933 9.81022 17.9933 9.99427C17.9933 10.1783 17.9425 10.3588 17.8465 10.5158C17.7505 10.6729 17.6131 10.8004 17.4493 10.8843Z" fill="white"/>
</svg>
